<?xml version="1.0" standalone="no"?>
<!DOCTYPE svg PUBLIC "-//W3C//DTD SVG 20010904//EN"
 "http://www.w3.org/TR/2001/REC-SVG-20010904/DTD/svg10.dtd">
<svg version="1.0" xmlns="http://www.w3.org/2000/svg"
 width="630.000000pt" height="630.000000pt" viewBox="0 0 630.000000 630.000000"
 preserveAspectRatio="xMidYMid meet">
<metadata>
Created by potrace 1.14, written by Peter Selinger 2001-2017
</metadata>
<g transform="translate(0.000000,630.000000) scale(0.100000,-0.100000)"
fill="#000000" stroke="none">
<path d="M2897 4938 c-66 -59 -17 -149 74 -134 60 9 79 72 37 120 -33 38 -78
44 -111 14z"/>
<path d="M1405 4920 c22 -21 100 -57 90 -40 -3 5 -20 17 -36 25 -16 9 -27 20
-24 25 4 6 -6 10 -22 10 -27 0 -27 0 -8 -20z"/>
<path d="M3908 4416 c-126 -33 -213 -148 -232 -307 -15 -123 46 -284 138 -365
124 -108 298 -99 405 22 167 191 109 518 -112 623 -74 35 -136 43 -199 27z
m170 -376 l13 -25 -4 28 c-4 23 -1 27 19 27 13 0 24 -5 24 -11 0 -5 3 -8 8 -5
20 12 85 -69 77 -96 -4 -12 -1 -18 8 -18 22 0 9 -41 -15 -48 -18 -4 -18 -5 1
-19 11 -7 18 -20 15 -27 -7 -17 -44 -28 -44 -13 0 8 -3 8 -11 0 -8 -8 -7 -17
2 -31 7 -12 11 -24 8 -27 -10 -9 -39 6 -39 20 0 20 -22 24 -50 10 -35 -18
-100 9 -100 42 0 13 -4 23 -10 23 -12 0 -12 -7 -1 -35 5 -11 4 -25 -1 -32 -8
-10 -6 -13 6 -13 10 0 14 5 11 10 -3 6 -1 10 4 10 16 0 13 -20 -4 -26 -8 -4
-15 -10 -15 -15 0 -5 7 -9 15 -9 8 0 15 -4 15 -10 0 -5 -2 -10 -4 -10 -2 0
-11 -3 -20 -6 -11 -4 -16 0 -16 13 0 10 -5 24 -11 30 -8 8 -8 17 0 32 6 11 9
31 6 44 -7 25 -13 57 -14 70 -1 5 -5 5 -11 2 -5 -3 -10 1 -10 10 0 11 5 15 15
11 10 -3 20 5 30 24 10 20 11 30 4 32 -15 5 -2 48 13 48 6 0 20 -8 31 -17 19
-17 20 -17 8 4 -16 30 -14 35 11 31 12 -2 29 -14 36 -28z m38 -307 c-11 -11
-19 6 -11 24 8 17 8 17 12 0 3 -10 2 -21 -1 -24z"/>
<path d="M3976 3915 c-9 -26 -7 -32 5 -12 6 10 9 21 6 23 -2 3 -7 -2 -11 -11z"/>
<path d="M4023 3894 c-21 -32 -8 -58 32 -62 22 -3 27 0 21 13 -3 9 -2 14 3 11
5 -3 11 5 13 19 10 48 -40 62 -69 19z m51 1 c3 -9 0 -15 -9 -15 -8 0 -15 7
-15 15 0 8 4 15 9 15 5 0 11 -7 15 -15z"/>
<path d="M1044 4229 c-4 -7 -7 -26 -7 -41 2 -52 6 -53 13 -3 8 54 6 63 -6 44z"/>
<path d="M1010 4190 c0 -5 5 -10 10 -10 6 0 10 5 10 10 0 6 -4 10 -10 10 -5 0
-10 -4 -10 -10z"/>
<path d="M987 4162 c7 -5 10 -17 6 -32 l-6 -24 -10 25 c-7 18 -11 20 -15 9 -6
-18 -50 -60 -62 -60 -5 0 -12 -9 -15 -20 -5 -16 -10 -18 -25 -10 -26 14 -48
13 -46 -2 1 -15 4 -13 -64 -37 -51 -18 -73 -31 -51 -31 9 0 9 -5 1 -20 -9 -17
-14 -18 -31 -7 -10 6 -25 27 -31 45 -7 17 -16 32 -21 32 -5 0 -6 12 -3 28 5
21 4 23 -4 11 -20 -34 27 -211 131 -486 79 -211 142 -365 195 -478 21 -44 38
-82 39 -85 5 -20 72 -140 91 -163 26 -31 29 -30 15 5 -5 13 -13 37 -17 53 l-7
30 -7 -25 -6 -25 -6 27 c-4 22 -2 26 15 22 11 -2 24 -9 28 -15 4 -6 12 -8 18
-5 6 4 11 1 11 -8 0 -10 6 -13 16 -9 9 3 19 2 23 -3 6 -10 61 -36 61 -30 0 2
-44 32 -99 67 l-99 62 -51 96 c-88 163 -227 536 -235 629 -3 43 -3 44 38 62
45 19 107 79 206 199 61 73 62 76 55 120 -7 44 -18 61 -40 61 -5 0 -5 -4 2 -8z"/>
<path d="M887 4143 c-4 -3 -7 -14 -7 -23 0 -10 -7 -23 -15 -30 -19 -16 -19
-30 -1 -30 8 0 17 14 21 33 4 17 12 38 17 45 11 13 -3 18 -15 5z"/>
<path d="M1040 4089 c0 -5 5 -7 10 -4 6 3 10 8 10 11 0 2 -4 4 -10 4 -5 0 -10
-5 -10 -11z"/>
<path d="M2123 4049 c-124 -24 -224 -121 -259 -251 -72 -271 125 -542 382
-526 90 6 153 35 220 103 153 157 115 470 -73 605 -83 59 -185 86 -270 69z
m299 -341 c9 -7 18 -20 22 -28 3 -8 4 -3 1 13 -5 23 -2 27 19 27 36 0 44 -33
31 -130 -2 -14 -4 -33 -4 -42 -1 -10 -15 -33 -32 -52 -27 -31 -33 -34 -54 -24
-14 6 -27 19 -31 30 -3 10 -10 15 -16 12 -8 -5 -9 -1 -3 12 18 43 17 63 -4 80
-15 13 -17 20 -8 26 9 6 9 10 -2 17 -21 13 -4 54 20 48 12 -3 19 0 19 9 0 17
21 18 42 2z m-67 -278 c-3 -5 -13 -10 -21 -10 -8 0 -14 5 -14 10 0 6 9 10 21
10 11 0 17 -4 14 -10z m7 -32 c-7 -7 -12 -8 -12 -2 0 14 12 26 19 19 2 -3 -1
-11 -7 -17z"/>
<path d="M2396 3559 c-32 -25 -32 -33 -1 -65 l26 -26 24 27 c29 30 31 47 9 69
-20 21 -26 20 -58 -5z"/>
<path d="M2761 3858 c-1 -3 8 -28 20 -55 56 -128 79 -236 81 -382 1 -71 -3
-97 -19 -130 -25 -51 -16 -53 17 -4 22 32 25 46 23 112 -3 99 -20 198 -49 291
-21 68 -72 185 -73 168z"/>
<path d="M1200 2796 c0 -2 7 -7 16 -10 8 -3 12 -2 9 4 -6 10 -25 14 -25 6z"/>
<path d="M3660 2551 c-33 -19 -243 -73 -362 -93 -135 -22 -154 -34 -99 -62 90
-47 249 -38 365 21 55 28 146 109 146 129 0 16 -27 18 -50 5z"/>
<path d="M1583 2308 c-13 -6 -24 -24 -28 -46 -6 -31 -3 -39 14 -51 29 -18 26
-53 -6 -92 -17 -20 -29 -49 -34 -83 -9 -62 -9 -600 0 -781 l6 -130 27 -3 c22
-3 30 2 36 20 5 13 5 131 0 263 -10 296 2 788 22 855 18 62 11 71 -37 48z"/>
<path d="M2103 2164 c0 -8 4 -14 9 -14 5 0 6 -5 3 -10 -8 -13 16 -80 29 -80 5
0 17 -7 27 -16 10 -9 35 -16 56 -16 21 0 50 -6 64 -14 15 -7 29 -10 33 -7 3 4
6 -1 6 -10 0 -9 11 -19 25 -23 14 -3 25 -10 25 -14 0 -4 26 -34 58 -67 32 -33
77 -93 101 -134 24 -41 57 -93 72 -117 16 -23 29 -48 29 -55 0 -8 3 -7 9 2 8
12 11 8 17 -14 7 -28 34 -66 34 -48 0 4 13 -16 29 -44 83 -150 184 -240 340
-301 60 -24 79 -26 211 -26 123 -1 156 2 215 21 187 59 330 199 384 377 28 91
26 117 -3 39 -29 -77 -42 -98 -128 -200 -82 -97 -143 -145 -237 -184 -143 -60
-283 -60 -406 0 l-60 30 -12 98 c-13 108 -55 312 -61 295 -1 -5 8 -68 22 -139
30 -161 40 -233 30 -233 -20 0 -110 69 -163 125 -107 115 -180 309 -181 480
l0 60 -123 43 c-109 39 -261 109 -372 172 -61 35 -82 41 -82 24z"/>
<path d="M936 1645 c-3 -8 -12 -15 -20 -15 -27 0 -66 -91 -70 -162 -2 -36 -4
-38 -77 -47 l-64 -8 60 -2 c91 -3 90 -3 91 -106 0 -49 6 -126 12 -170 18 -120
34 -306 27 -313 -3 -4 -50 -12 -103 -18 l-97 -11 103 -2 102 -1 0 -40 c0 -22
-4 -40 -8 -40 -9 0 -62 -101 -62 -118 0 -7 -4 -12 -9 -12 -6 0 -29 -12 -53
-27 -75 -48 -82 -53 -108 -64 -44 -19 -188 10 -198 40 -2 6 -10 11 -18 11 -17
0 -54 35 -54 51 0 8 -5 7 -16 -2 -13 -11 -14 -9 -8 16 5 20 4 26 -4 21 -8 -5
-10 -1 -5 11 10 26 26 40 91 80 45 28 51 34 27 29 -16 -4 -52 -17 -78 -30 -62
-30 -81 -25 -97 27 -6 23 -18 52 -26 65 -9 13 -12 32 -9 43 4 11 0 30 -9 43
-10 16 -13 38 -10 62 3 30 2 34 -5 19 l-10 -20 -1 20 c-2 41 -70 91 -70 51 0
-7 -6 -19 -14 -26 -12 -9 -16 -5 -22 25 -18 100 59 205 210 287 28 16 43 28
33 28 -34 0 -147 -63 -192 -108 -25 -25 -45 -41 -45 -36 0 28 74 194 109 244
27 39 37 61 31 70 -5 8 -12 11 -17 7 -4 -5 -1 -12 7 -17 11 -7 10 -9 -7 -8
-11 1 -19 7 -17 13 7 17 -68 68 -77 53 -6 -9 -12 -8 -24 2 -22 18 -83 40 -112
40 l-23 0 0 -800 0 -800 601 0 c506 0 603 2 615 14 7 8 25 23 39 34 22 17 23
23 15 53 -20 70 -13 78 31 32 43 -46 55 -49 136 -34 26 5 111 14 188 21 280
23 897 89 904 96 3 3 -55 2 -129 -2 -143 -8 -944 -10 -995 -3 -16 3 -40 10
-52 17 -18 10 -23 9 -32 -5 -9 -17 -10 -17 -16 0 -4 9 -12 17 -19 17 -33 0
-102 164 -141 340 -53 232 -85 565 -85 869 0 135 -2 152 -15 141 -9 -8 -15
-29 -15 -54 1 -52 -16 -170 -19 -136 -2 14 -2 45 -1 70 2 45 -13 48 -22 5 -5
-24 -28 97 -28 148 0 37 -13 49 -24 22z m-866 -75 c0 -5 -7 -10 -15 -10 -8 0
-15 5 -15 10 0 6 7 10 15 10 8 0 15 -4 15 -10z m917 -197 c-3 -10 -5 -2 -5 17
0 19 2 27 5 18 2 -10 2 -26 0 -35z m54 -400 c-8 -14 -10 -4 -10 42 l1 60 10
-42 c6 -28 6 -49 -1 -60z m9 -42 c0 -6 -4 -13 -10 -16 -5 -3 -10 1 -10 9 0 9
5 16 10 16 6 0 10 -4 10 -9z m7 -73 c-3 -8 -6 -5 -6 6 -1 11 2 17 5 13 3 -3 4
-12 1 -19z m-722 -393 c7 -6 38 -28 71 -50 67 -45 90 -65 76 -65 -6 0 -8 -16
-5 -37 6 -46 -19 -142 -47 -189 -68 -109 -192 65 -194 272 -1 67 2 86 18 103
l19 21 26 -22 c14 -13 30 -28 36 -33z m823 -189 c19 -32 19 -35 4 -49 -9 -8
-22 -12 -29 -10 -6 2 -14 -1 -18 -6 -8 -14 -45 -14 -45 -2 0 6 5 13 10 16 6 4
19 24 30 46 11 21 22 39 24 39 2 0 13 -15 24 -34z m-168 -41 c-6 -8 -20 -17
-31 -20 -10 -4 -19 -15 -19 -26 0 -11 -4 -18 -9 -15 -12 8 -5 58 11 67 7 5 24
9 37 9 19 0 21 -2 11 -15z m483 -112 c-7 -2 -19 -2 -25 0 -7 3 -2 5 12 5 14 0
19 -2 13 -5z"/>
<path d="M5104 1553 c2 -25 -1 -44 -7 -46 -6 -2 -3 -6 6 -10 19 -7 21 15 6 68
-7 26 -8 25 -5 -12z"/>
<path d="M142 1070 c0 -14 2 -19 5 -12 2 6 2 18 0 25 -3 6 -5 1 -5 -13z"/>
<path d="M5400 484 c-468 -69 -2371 -279 -3615 -399 -148 -14 -311 -30 -362
-35 -90 -8 -133 -21 -133 -40 0 -7 814 -10 2256 -10 l2256 0 -4 133 -3 133
-43 51 c-23 29 -37 53 -31 55 6 2 -8 24 -32 49 -67 68 -143 85 -289 63z m281
-94 l24 -21 -32 16 c-32 15 -42 25 -24 25 5 0 19 -9 32 -20z"/>
<path d="M4234 455 c-17 -18 -36 -23 -105 -29 -46 -4 -181 -18 -299 -32 -118
-13 -307 -33 -420 -44 -170 -17 -601 -62 -715 -74 -16 -2 -38 -4 -47 -5 -12
-1 -18 -9 -18 -26 0 -20 5 -25 25 -25 54 0 1546 166 1576 175 9 3 16 11 16 18
0 7 3 25 7 40 8 32 7 32 -20 2z"/>
</g>
</svg>
